<svg width="59" height="71" viewBox="0 0 59 71" fill="none" xmlns="http://www.w3.org/2000/svg">
<path d="M55.9202 12.6141H53.4986V9.70132C53.4986 7.95363 52.5299 6.78851 51.0769 6.78851H48.6553V3.8757C48.6553 2.12801 47.6866 0.962891 46.2336 0.962891H2.64388C1.19089 0.962891 0.222229 2.12801 0.222229 3.8757V56.3063C0.222229 58.0539 1.19089 59.2191 2.64388 59.2191H5.06553V62.1319C5.06553 63.8796 6.03419 65.0447 7.48719 65.0447H9.90884V67.9575C9.90884 69.7052 10.8775 70.8703 12.3305 70.8703H55.9202C57.3732 70.8703 58.3419 69.7052 58.3419 67.9575V15.5269C58.3419 13.7792 57.3732 12.6141 55.9202 12.6141ZM5.06553 9.70132V56.3063H2.64388V3.8757H46.2336V6.78851H7.48719C6.03419 6.78851 5.06553 7.95363 5.06553 9.70132ZM9.90884 15.5269V62.1319H7.48719V9.70132H51.0769V12.6141H12.3305C10.8775 12.6141 9.90884 13.7792 9.90884 15.5269ZM53.4986 65.0447H28.0712L43.812 46.1114L53.4986 57.7627V65.0447ZM53.4986 53.3934L43.812 41.7422L24.4388 65.0447H14.7521V18.4397H53.4986V53.3934Z" fill="white"/>
<path d="M29.282 44.6551C33.3989 44.6551 36.547 40.8684 36.547 35.9166C36.547 30.9649 33.3989 27.1782 29.282 27.1782C25.1652 27.1782 22.0171 30.9649 22.0171 35.9166C22.0171 40.8684 25.1652 44.6551 29.282 44.6551ZM29.282 30.091C31.9459 30.091 34.1254 32.7126 34.1254 35.9166C34.1254 39.1207 31.9459 41.7423 29.282 41.7423C26.6182 41.7423 24.4387 39.1207 24.4387 35.9166C24.4387 32.7126 26.6182 30.091 29.282 30.091Z" fill="white"/>
</svg>
