<svg width="82" height="99" viewBox="0 0 82 99" fill="none" xmlns="http://www.w3.org/2000/svg">
<path d="M13.3389 84.8817L13.338 84.8817C13.1604 84.8809 12.984 84.843 12.8187 84.7692C12.6533 84.6955 12.5017 84.587 12.3732 84.4486L12.3698 84.445L1.79394 73.2807L1.79252 73.2792C1.66258 73.1432 1.55807 72.9798 1.4863 72.798C1.41452 72.6161 1.37726 72.4201 1.37726 72.2216C1.37726 72.0231 1.41452 71.8271 1.4863 71.6452L1.02121 71.4617L1.4863 71.6452C1.55807 71.4634 1.66257 71.3 1.79252 71.164L1.79385 71.1626L41.5132 29.2529C41.5135 29.2526 41.5138 29.2523 41.5141 29.2519C41.7733 28.9804 42.1178 28.8334 42.4708 28.8334C42.8239 28.8334 43.1685 28.9805 43.4277 29.2521C43.428 29.2523 43.4283 29.2526 43.4285 29.2529L54.0207 40.4344C54.0208 40.4346 54.021 40.4348 54.0212 40.435C54.2775 40.7081 54.4263 41.082 54.4279 41.4772L54.4279 41.478C54.429 41.6759 54.393 41.8715 54.3226 42.0534C54.2523 42.2351 54.1495 42.3986 54.0211 42.5353C54.021 42.5355 54.0208 42.5357 54.0207 42.5358L14.3205 84.445L14.3171 84.4487C14.187 84.5888 14.0331 84.6982 13.8653 84.772C13.6977 84.8458 13.5187 84.8828 13.3389 84.8817ZM12.615 85.2259C12.3869 85.1241 12.1802 84.9756 12.0068 84.7889L13.3358 85.3817C13.0881 85.3806 12.8431 85.3276 12.615 85.2259ZM5.03632 71.8777L4.70926 72.2227L5.03746 72.5667L12.974 80.8856L13.3371 81.2662L13.6988 80.8844L50.761 41.7598L51.0883 41.4143L50.7594 41.0704L42.8228 32.7713L42.4599 32.3917L42.0986 32.7729L5.03632 71.8777Z" fill="white" stroke="white"/>
<path d="M75.1926 36.941L75.1919 36.9418C73.3282 38.9172 71.1137 40.4817 68.677 41.5463C66.2405 42.6109 63.6293 43.1548 60.9941 43.1476H60.9929C56.3526 43.146 51.8524 41.4461 48.2597 38.3316C44.6664 35.2165 42.2029 30.8782 41.2952 26.0532C40.3874 21.228 41.0931 16.2207 43.2895 11.8859C45.4858 7.55141 49.0345 4.16109 53.3256 2.28627C57.616 0.41175 62.3875 0.165946 66.8293 1.5897C71.2716 3.01363 75.115 6.02156 77.7 10.108C80.2854 14.1948 81.4502 19.1049 80.9922 24.001C80.5343 28.897 78.4826 33.4696 75.1926 36.941ZM61.4927 3.65511V3.62717L60.992 3.62788C58.136 3.63193 55.3264 4.37909 52.8121 5.80143C50.2979 7.22367 48.1575 9.27647 46.5781 11.7758C44.9988 14.2751 44.0285 17.1448 43.7513 20.1309C43.4741 23.1171 43.8982 26.1299 44.9871 28.9033C46.0759 31.6768 47.7967 34.127 49.9994 36.0357C52.2024 37.9446 54.8194 39.2527 57.6196 39.8419C60.4199 40.431 63.3147 40.2824 66.0471 39.4096C68.7793 38.5367 71.2627 36.9674 73.2789 34.843L73.2795 34.8424C75.7013 32.2826 77.347 29.0255 78.0125 25.4842C78.678 21.9429 78.3341 18.2725 77.0233 14.9361C75.7126 11.5995 73.4924 8.74373 70.6395 6.73283C67.9248 4.81936 64.754 3.75342 61.4927 3.65511Z" fill="white" stroke="white"/>
<path d="M42.4646 54.1353L42.4638 54.1353C42.113 54.1338 41.7711 53.9871 41.5134 53.7175C41.5132 53.7173 41.513 53.7171 41.5129 53.7169L30.9207 42.5354C30.9206 42.5352 30.9204 42.5351 30.9202 42.5349C30.6618 42.2602 30.5124 41.8832 30.5124 41.4851C30.5124 41.087 30.6618 40.71 30.9203 40.4352C30.9205 40.4351 30.9206 40.435 30.9207 40.4348L41.5132 29.2529C41.5134 29.2528 41.5135 29.2526 41.5137 29.2525C41.7729 28.9806 42.1176 28.8334 42.4709 28.8334C42.8242 28.8334 43.1688 28.9806 43.4281 29.2524C43.4283 29.2526 43.4284 29.2527 43.4286 29.2529L54.0207 40.4344C54.021 40.4347 54.0212 40.435 54.0215 40.4352C54.2777 40.7083 54.4264 41.0821 54.428 41.4772L54.428 41.478C54.429 41.6759 54.3931 41.8715 54.3227 42.0534C54.2525 42.2349 54.1497 42.3984 54.0215 42.535C54.0213 42.5353 54.021 42.5355 54.0207 42.5358L43.429 53.7169C43.4288 53.7171 43.4286 53.7173 43.4285 53.7175C43.2991 53.8528 43.1472 53.9584 42.9822 54.0295C42.8171 54.1007 42.6413 54.1364 42.4646 54.1353ZM34.1624 41.131L33.8363 41.4744L34.1616 41.8187L42.0982 50.2166L42.4611 50.6007L42.8245 50.217L50.7798 41.8191L51.1063 41.4744L50.779 41.1305L42.8237 32.7721L42.4611 32.3911L42.099 32.7725L34.1624 41.131Z" fill="white" stroke="white"/>
<path d="M6.11729 85.5724L6.09376 85.5704L6.07015 85.5705C5.89348 85.5716 5.71768 85.5359 5.55256 85.4647C5.38766 85.3936 5.23583 85.2881 5.10649 85.1529C5.10625 85.1526 5.10602 85.1524 5.10578 85.1521L1.1389 80.9645L1.13891 80.9645L1.13749 80.963C1.00755 80.827 0.903047 80.6636 0.831276 80.4818C0.759493 80.2999 0.722229 80.1039 0.722229 79.9054C0.722229 79.7069 0.759494 79.5109 0.831276 79.329C0.903045 79.1472 1.00755 78.9839 1.13749 78.8478L1.1375 78.8478L1.1389 78.8463L5.10719 74.6572L5.10719 74.6572L5.10859 74.6557C5.23748 74.5186 5.38934 74.4112 5.55463 74.3385L5.3582 73.8919L5.55463 74.3385C5.71983 74.2659 5.89599 74.2289 6.0732 74.2289C6.2504 74.2289 6.42656 74.2659 6.59177 74.3385C6.75706 74.4112 6.90891 74.5186 7.0378 74.6557L7.03779 74.6558L7.0408 74.6589L11.1025 78.9071C11.1025 78.9071 11.1026 78.9072 11.1027 78.9073C11.2325 79.0433 11.337 79.2066 11.4087 79.3883C11.4805 79.5702 11.5178 79.7662 11.5178 79.9647C11.5178 80.1632 11.4805 80.3592 11.4087 80.5411C11.3369 80.7229 11.2324 80.8862 11.1025 81.0223L11.1011 81.0238L7.14066 85.2046C7.00146 85.3377 6.83962 85.4379 6.66567 85.5007C6.48885 85.5646 6.30227 85.5888 6.11729 85.5724ZM4.38871 79.5538L4.04836 79.8979L4.38121 80.2493L5.71021 81.6522L6.0732 82.0354L6.43619 81.6522L7.76519 80.2493L8.09803 79.8979L7.75769 79.5538L6.42869 78.2101L6.0732 77.8507L5.71771 78.2101L4.38871 79.5538Z" fill="white" stroke="white"/>
<path d="M2.21718 81.8233L2.71553 81.8639C2.73162 81.6662 2.78459 81.4747 2.87055 81.3006C2.95649 81.1265 3.07335 80.9739 3.21312 80.8507C3.35283 80.7276 3.5127 80.6362 3.683 80.5804C3.85307 80.5247 4.03122 80.5052 4.20758 80.5227C4.56083 80.5586 4.89327 80.7416 5.12824 81.0421C5.36402 81.3435 5.47993 81.7364 5.44412 82.1342L5.44385 82.1374C5.28231 84.0735 5.2821 86.5771 5.54377 88.817C5.67459 89.9369 5.87242 91.0048 6.15446 91.9089C6.43255 92.8005 6.80989 93.591 7.33576 94.0983L7.33573 94.0984L7.34015 94.1025C7.58184 94.3301 7.87834 94.4894 8.20123 94.5614C8.51377 94.6311 8.83785 94.6161 9.14246 94.5184C12.3001 93.8463 15.7949 92.1612 18.4887 90.6552C21.1907 89.1447 23.1443 87.7813 23.2113 87.7283L23.2113 87.7284L23.2187 87.7223C24.1391 86.9645 26.3261 85.3101 28.7258 83.9984C29.926 83.3425 31.1629 82.7814 32.3103 82.4573C33.4674 82.1305 34.4735 82.0621 35.248 82.3179L35.248 82.3179L35.2545 82.32C35.7016 82.4608 36.1124 82.7149 36.4505 83.0629C36.7887 83.4111 37.0439 83.8429 37.1919 84.3222L37.1953 84.3332L37.1992 84.344C37.3328 84.7156 37.321 85.129 37.1669 85.4907C37.0131 85.8518 36.7335 86.1252 36.398 86.2597C36.0635 86.3937 35.6935 86.3823 35.3662 86.2269C35.0378 86.071 34.7733 85.7796 34.6398 85.4085L34.5322 85.1093L34.2157 85.0798C33.7714 85.0385 33.173 85.1999 32.5407 85.4416C31.8828 85.6931 31.1034 86.066 30.2606 86.5272C28.5767 87.4485 26.6057 88.7408 24.7899 90.1776C24.5472 90.3514 22.4803 91.8039 19.6278 93.3905C16.7286 95.0031 13.0573 96.7318 9.67985 97.4178L9.67985 97.4178L9.67392 97.4191C9.30632 97.4984 8.93259 97.5409 8.55764 97.5462C7.43886 97.5526 6.35426 97.1118 5.52308 96.3043L5.52311 96.3043L5.51805 96.2995C4.66496 95.4935 4.03734 94.3257 3.58711 92.9571C3.13815 91.5922 2.87659 90.0615 2.73363 88.5657C2.44769 85.574 2.64145 82.7828 2.71556 81.8635L2.21718 81.8233ZM2.21718 81.8233C2.23833 81.5634 2.30801 81.3105 2.42221 81.0792C2.5364 80.8479 2.69285 80.6428 2.88253 80.4756C3.0722 80.3084 3.29135 80.1826 3.52734 80.1053C3.76332 80.028 4.01147 80.0007 4.25748 80.0252L5.17467 96.663C1.43101 93.126 2.06743 83.6807 2.21718 81.8233Z" fill="white" stroke="white"/>
</svg>
