<svg width="71" height="85" viewBox="0 0 71 85" fill="none" xmlns="http://www.w3.org/2000/svg">
<path fill-rule="evenodd" clip-rule="evenodd" d="M35.4188 84.8703C16.1596 84.8703 0.547012 66.0912 0.547012 42.9259C0.547012 19.7606 16.1596 0.981445 35.4188 0.981445C54.678 0.981445 70.2906 19.7606 70.2906 42.9259C70.2906 66.0912 54.678 84.8703 35.4188 84.8703ZM35.4188 74.3842C20.9744 74.3842 9.26496 60.2998 9.26496 42.9259C9.26496 25.5519 20.9744 11.4676 35.4188 11.4676C49.8632 11.4676 61.5727 25.5519 61.5727 42.9259C61.5727 60.2998 49.8632 74.3842 35.4188 74.3842ZM57.2137 42.9259L39.7778 63.8981V48.1689H13.6239V37.6828H39.7778V21.9537L57.2137 42.9259Z" fill="white"/>
</svg>
